<svg width="180" height="180" viewBox="0 0 180 180" fill="none" xmlns="http://www.w3.org/2000/svg">
<path fill-rule="evenodd" clip-rule="evenodd" d="M53.3333 0.5C53.3333 0.223858 53.1095 0 52.8333 0H30.5C30.2239 0 30 0.223859 30 0.500001V126.667V149.5C30 149.776 30.2239 150 30.5 150H53.3333H179.5C179.776 150 180 149.776 180 149.5V127.167C180 126.891 179.776 126.667 179.5 126.667H53.8333C53.5572 126.667 53.3333 126.443 53.3333 126.167V0.5Z" fill="black"/>
<path fill-rule="evenodd" clip-rule="evenodd" d="M150 30.5C150 30.2239 149.776 30 149.5 30H57.1667C56.8906 30 56.6667 30.2239 56.6667 30.5V52.8333C56.6667 53.1095 56.8906 53.3333 57.1667 53.3333H126.167C126.443 53.3333 126.667 53.5572 126.667 53.8333V122.833C126.667 123.109 126.891 123.333 127.167 123.333H149.5C149.776 123.333 150 123.109 150 122.833L150 53.3333V30.5Z" fill="black"/>
<rect x="126.667" y="153.333" width="23.3333" height="26.6667" rx="0.5" fill="black"/>
<rect y="30" width="26.6667" height="23.3333" rx="0.5" fill="black"/>
</svg>
