<svg width="28" height="28" viewBox="0 0 28 28" fill="none" xmlns="http://www.w3.org/2000/svg">
<path d="M14 1.8667C12.3041 1.8667 10.6912 2.22014 9.22396 2.85107L10.1063 3.73337C10.2892 3.9163 10.4484 4.11759 10.5875 4.32946C11.6571 3.95053 12.8025 3.73337 14 3.73337C19.6607 3.73337 24.2667 8.33937 24.2667 14C24.2667 19.6607 19.6607 24.2667 14 24.2667C8.33934 24.2667 3.73334 19.6607 3.73334 14C3.73334 12.8026 3.9505 11.658 4.32943 10.5894C4.11756 10.4503 3.91627 10.2901 3.73334 10.1063L2.85104 9.22399C2.22011 10.6912 1.86667 12.3042 1.86667 14C1.86667 20.6902 7.30987 26.1334 14 26.1334C20.6901 26.1334 26.1333 20.6902 26.1333 14C26.1333 7.3099 20.6901 1.8667 14 1.8667ZM3.72422 2.79092C3.53855 2.79097 3.35711 2.84639 3.2031 2.95009C3.04909 3.0538 2.92951 3.20108 2.85965 3.3731C2.78978 3.54513 2.7728 3.73408 2.81089 3.9158C2.84897 4.09753 2.94038 4.26376 3.07344 4.39326L4.28021 5.60003H3.46719C2.87639 5.60003 2.58057 6.31393 2.9987 6.73206L5.05313 8.78649C5.40313 9.13649 5.87825 9.33337 6.37292 9.33337H8.01354L13.3401 14.6599C13.4261 14.7495 13.5291 14.821 13.6431 14.8703C13.7571 14.9196 13.8798 14.9456 14.0039 14.9468C14.1281 14.9481 14.2513 14.9246 14.3662 14.8776C14.4812 14.8307 14.5857 14.7613 14.6735 14.6735C14.7613 14.5857 14.8307 14.4812 14.8776 14.3663C14.9246 14.2513 14.9481 14.1281 14.9468 14.004C14.9456 13.8798 14.9195 13.7571 14.8703 13.6431C14.821 13.5292 14.7495 13.4261 14.6599 13.3401L9.33334 8.01357V6.37295C9.33334 5.87828 9.13646 5.40316 8.78646 5.05316L6.73203 2.99873C6.3139 2.5806 5.6 2.87642 5.6 3.46722V4.28024L4.39323 3.07347C4.30625 2.98406 4.20224 2.91299 4.08733 2.86446C3.97242 2.81593 3.84896 2.79093 3.72422 2.79092V2.79092ZM14 5.60003C13.0069 5.60003 12.0575 5.78125 11.1727 6.09951C11.1801 6.19098 11.2 6.28055 11.2 6.37295V7.24066L11.8107 7.85133C12.4967 7.6068 13.2319 7.4667 14 7.4667C17.6017 7.4667 20.5333 10.3974 20.5333 14C20.5333 17.6027 17.6017 20.5334 14 20.5334C10.3983 20.5334 7.46667 17.6027 7.46667 14C7.46667 13.2319 7.60584 12.4967 7.8513 11.8107L7.24063 11.2H6.37292C6.28052 11.2 6.19095 11.1802 6.09948 11.1727C5.78215 12.0575 5.6 13.007 5.6 14C5.6 18.6312 9.36787 22.4 14 22.4C18.6321 22.4 22.4 18.6312 22.4 14C22.4 9.36883 18.6321 5.60003 14 5.60003ZM14 9.33337C13.7797 9.33337 13.5702 9.36912 13.3583 9.39899L15.9797 12.0203L15.9779 12.0222C16.4856 12.529 16.8 13.2282 16.8 14C16.8 15.5438 15.5437 16.8 14 16.8C13.2281 16.8 12.5289 16.4856 12.0221 15.9779L12.0203 15.9797L9.39896 13.3584C9.36909 13.5702 9.33334 13.7798 9.33334 14C9.33334 16.5732 11.4268 18.6667 14 18.6667C16.5732 18.6667 18.6667 16.5732 18.6667 14C18.6667 11.4268 16.5732 9.33337 14 9.33337Z" fill="black"/>
</svg>
