<svg width="28" height="28" viewBox="0 0 28 28" fill="none" xmlns="http://www.w3.org/2000/svg">
<path d="M3.73334 3.7334C2.70201 3.7334 1.86667 4.56873 1.86667 5.60007V10.2667V11.2001V20.6938L3.73334 18.8271V11.2001H24.2667V22.4001H7.30626L5.43959 24.2667H26.1333V11.2001V10.2667V5.60007C26.1333 4.56873 25.298 3.7334 24.2667 3.7334H3.73334ZM4.66667 6.5334C5.18187 6.5334 5.60001 6.95153 5.60001 7.46673C5.60001 7.98193 5.18187 8.40007 4.66667 8.40007C4.15147 8.40007 3.73334 7.98193 3.73334 7.46673C3.73334 6.95153 4.15147 6.5334 4.66667 6.5334ZM8.40001 6.5334C8.91521 6.5334 9.33334 6.95153 9.33334 7.46673C9.33334 7.98193 8.91521 8.40007 8.40001 8.40007C7.88481 8.40007 7.46667 7.98193 7.46667 7.46673C7.46667 6.95153 7.88481 6.5334 8.40001 6.5334ZM11.2 6.5334H24.2667V8.40007H11.2V6.5334ZM20.5333 13.0667C20.2784 13.067 20.0261 13.1194 19.7922 13.2209C19.5583 13.3224 19.3477 13.4707 19.1733 13.6567C18.9989 13.8427 18.8645 14.0624 18.7783 14.3024C18.6921 14.5424 18.656 14.7974 18.6721 15.0519L15.7591 16.9933C15.5023 16.8664 15.2198 16.8003 14.9333 16.8001C14.4778 16.8008 14.0382 16.968 13.6974 17.2704L11.1599 16.4245C11.0735 16.0038 10.8446 15.6257 10.5119 15.3541C10.1791 15.0824 9.76288 14.9338 9.33334 14.9334C9.04739 14.9338 8.76536 14.9999 8.509 15.1265C8.25263 15.2532 8.0288 15.4371 7.85476 15.6639C7.68072 15.8908 7.56113 16.1547 7.50522 16.4351C7.44931 16.7155 7.45858 17.005 7.5323 17.2813L2.14011 22.6735C2.05053 22.7595 1.97902 22.8625 1.92975 22.9765C1.88049 23.0905 1.85446 23.2132 1.8532 23.3373C1.85193 23.4615 1.87546 23.5847 1.9224 23.6996C1.96933 23.8146 2.03874 23.9191 2.12654 24.0069C2.21435 24.0947 2.3188 24.1641 2.43376 24.211C2.54873 24.2579 2.6719 24.2815 2.79607 24.2802C2.92024 24.2789 3.04291 24.2529 3.1569 24.2037C3.27089 24.1544 3.3739 24.0829 3.4599 23.9933L8.85209 18.6011C9.00896 18.6438 9.17075 18.6659 9.33334 18.6667C9.78891 18.666 10.2285 18.4988 10.5693 18.1964L13.1068 19.0423C13.1932 19.463 13.4221 19.8411 13.7548 20.1127C14.0876 20.3844 14.5038 20.533 14.9333 20.5334C15.1883 20.5332 15.4405 20.4807 15.6744 20.3792C15.9084 20.2778 16.119 20.1295 16.2934 19.9435C16.4678 19.7575 16.6022 19.5377 16.6884 19.2977C16.7746 19.0578 16.8107 18.8027 16.7945 18.5482L19.7076 16.6068C19.9643 16.7338 20.2469 16.7999 20.5333 16.8001C21.0284 16.8001 21.5032 16.6034 21.8533 16.2533C22.2033 15.9033 22.4 15.4285 22.4 14.9334C22.4 14.4383 22.2033 13.9635 21.8533 13.6135C21.5032 13.2634 21.0284 13.0667 20.5333 13.0667Z" fill="black"/>
</svg>
