<svg width="28" height="28" viewBox="0 0 28 28" fill="none" xmlns="http://www.w3.org/2000/svg">
<path d="M7.48853 3.72616C7.27847 3.7233 7.07359 3.79138 6.90702 3.91939C6.90702 3.91939 2.79999 7.05197 2.79999 13.0668V22.4001C2.79999 23.4315 3.63532 24.2668 4.66665 24.2668H10.2667C11.298 24.2668 12.1333 23.4315 12.1333 22.4001V14.9335C12.1333 13.9021 11.298 13.0668 10.2667 13.0668H6.49504C6.47184 11.4049 6.6345 7.85039 8.2341 5.20272C8.33329 5.06413 8.39264 4.90102 8.40571 4.73109C8.41879 4.56116 8.38508 4.3909 8.30827 4.23876C8.23145 4.08662 8.11444 3.95842 7.96993 3.86806C7.82543 3.7777 7.65894 3.72862 7.48853 3.72616V3.72616ZM20.5552 3.72616C20.3451 3.7233 20.1403 3.79138 19.9737 3.91939C19.9737 3.91939 15.8667 7.05197 15.8667 13.0668V22.4001C15.8667 23.4315 16.702 24.2668 17.7333 24.2668H23.3333C24.3647 24.2668 25.2 23.4315 25.2 22.4001V14.9335C25.2 13.9021 24.3647 13.0668 23.3333 13.0668H19.5617C19.5385 11.4049 19.7012 7.85039 21.3008 5.20272C21.4 5.06413 21.4593 4.90102 21.4724 4.73109C21.4855 4.56116 21.4518 4.3909 21.3749 4.23876C21.2981 4.08662 21.1811 3.95842 21.0366 3.86806C20.8921 3.7777 20.7256 3.72862 20.5552 3.72616V3.72616Z" fill="black"/>
</svg>
