<svg width="28" height="28" viewBox="0 0 28 28" fill="none" xmlns="http://www.w3.org/2000/svg">
<path d="M6.16146 2.7998C5.30839 2.7998 4.66667 3.73314 4.66667 3.73314C-0.219333 3.73314 2.47635 11.532 1.04089 12.6818C1.04089 12.6818 1.9208 13.7701 4.66667 13.7701V14.7016C3.90787 16.6784 0 15.9477 0 19.5998H7.48854C8.14561 19.2022 10.2667 18.0995 10.2667 18.0995C9.75987 17.5582 9.02876 16.6223 8.76276 15.9139C8.18036 15.6217 7.68787 15.2784 7.46667 14.7016V13.7592C7.644 13.7592 8.16691 13.7182 8.35078 13.6771C7.93451 13.0359 7.58333 11.5745 7.58333 10.755C7.58333 8.67088 8.48086 6.95662 9.96953 5.88236C9.5206 4.16409 8.52372 2.7998 6.16146 2.7998ZM21.4667 2.7998C19.3919 2.7998 18.1179 4.22706 17.8099 6.09746C19.3182 6.90573 20.3 8.64825 20.3 10.8425C20.3 11.5285 20.14 12.1886 19.9664 12.7001C20.0308 12.953 20.0667 13.2351 20.0667 13.5477C20.0667 15.8531 17.7333 18.1524 17.7333 18.1524C18.2401 18.3736 19.8616 19.1975 20.5242 19.5998H28C28 14.6998 24.0212 16.0998 23.3333 13.9998V12.5998C23.6432 12.4439 24.3811 11.3708 24.4745 10.5326C24.7171 10.514 25.2 9.92072 25.2 9.38965C25.2 8.85858 25.0312 8.63515 24.8846 8.54928C24.8846 8.54928 25.2 7.8482 25.2 6.9998C25.2 5.3002 24.7408 3.73314 23.3333 3.73314C23.3333 3.73314 22.9292 2.7998 21.4667 2.7998ZM14 6.53314C11.4875 6.53314 9.45 8.04648 9.45 10.755C9.45 11.9002 10.0917 12.793 10.0917 12.793C10.0917 12.793 9.8 12.9364 9.8 13.5477C9.8 14.7359 10.5638 15.0206 10.5638 15.0206C10.6702 15.9614 12.1333 17.3394 12.1333 17.3394V18.9126C11.3475 21.2702 6.53333 19.7165 6.53333 25.1998H21.4667C21.4667 19.6978 16.6525 21.2702 15.8667 18.9126V17.3394C15.8667 17.3394 17.3298 15.9614 17.4362 15.0206C17.4362 15.0206 18.2 14.4932 18.2 13.5477C18.2 12.8925 17.9083 12.793 17.9083 12.793C17.9083 12.793 18.4333 11.7945 18.4333 10.8425C18.4333 8.93385 17.4757 7.46647 15.8667 7.46647C15.8667 7.46647 15.1835 6.53314 14 6.53314Z" fill="black"/>
</svg>
