<svg width="28" height="28" viewBox="0 0 28 28" fill="none" xmlns="http://www.w3.org/2000/svg">
<path d="M11.2 3.7334C10.1687 3.7334 9.33334 4.56873 9.33334 5.60007V7.46673C9.33334 8.49807 10.1687 9.3334 11.2 9.3334H13.0667V13.0667H5.6C5.35248 13.0668 5.11509 13.1651 4.94006 13.3401C4.76504 13.5152 4.66669 13.7525 4.66667 14.0001V18.6667C3.63534 18.6667 2.8 19.5021 2.8 20.5334V22.4001C2.8 23.4314 3.63534 24.2667 4.66667 24.2667H6.53334C7.56467 24.2667 8.4 23.4314 8.4 22.4001V20.5334C8.4 19.5021 7.56467 18.6667 6.53334 18.6667V14.9334H13.0667V18.6667C12.0353 18.6667 11.2 19.5021 11.2 20.5334V22.4001C11.2 23.4314 12.0353 24.2667 13.0667 24.2667H14.9333C15.9647 24.2667 16.8 23.4314 16.8 22.4001V20.5334C16.8 19.5021 15.9647 18.6667 14.9333 18.6667V14.9334H21.4667V18.6667C20.4353 18.6667 19.6 19.5021 19.6 20.5334V22.4001C19.6 23.4314 20.4353 24.2667 21.4667 24.2667H23.3333C24.3647 24.2667 25.2 23.4314 25.2 22.4001V20.5334C25.2 19.5021 24.3647 18.6667 23.3333 18.6667V14.0001C23.3333 13.7525 23.235 13.5152 23.0599 13.3401C22.8849 13.1651 22.6475 13.0668 22.4 13.0667H14.9333V9.3334H16.8C17.8313 9.3334 18.6667 8.49807 18.6667 7.46673V5.60007C18.6667 4.56873 17.8313 3.7334 16.8 3.7334H11.2Z" fill="black"/>
</svg>
