<svg width="28" height="28" viewBox="0 0 28 28" fill="none" xmlns="http://www.w3.org/2000/svg">
<path d="M5.6 3.7334C4.57981 3.7334 3.73334 4.57987 3.73334 5.60007V7.46673C3.73334 8.48692 4.57981 9.3334 5.6 9.3334H22.4C23.4202 9.3334 24.2667 8.48692 24.2667 7.46673V5.60007C24.2667 4.57987 23.4202 3.7334 22.4 3.7334H5.6ZM8.4 5.60007H22.4V7.46673H8.4V5.60007ZM5.6 11.2001C4.57981 11.2001 3.73334 12.0465 3.73334 13.0667V14.9334C3.73334 15.9536 4.57981 16.8001 5.6 16.8001H22.4C23.4202 16.8001 24.2667 15.9536 24.2667 14.9334V13.0667C24.2667 12.0465 23.4202 11.2001 22.4 11.2001H5.6ZM18.6667 13.0667H22.4V14.9334H18.6667V13.0667ZM5.6 18.6667C4.57981 18.6667 3.73334 19.5132 3.73334 20.5334V22.4001C3.73334 23.4203 4.57981 24.2667 5.6 24.2667H22.4C23.4202 24.2667 24.2667 23.4203 24.2667 22.4001V20.5334C24.2667 19.5132 23.4202 18.6667 22.4 18.6667H5.6ZM14 20.5334H22.4V22.4001H14V20.5334Z" fill="black"/>
</svg>
