<svg width="28" height="28" viewBox="0 0 28 28" fill="none" xmlns="http://www.w3.org/2000/svg">
<path fill-rule="evenodd" clip-rule="evenodd" d="M0 14C0 6.26801 6.26801 0 14 0C21.732 0 28 6.26801 28 14C28 21.732 21.732 28 14 28C6.26801 28 0 21.732 0 14ZM18.5607 10.5L18.0303 11.0303L15.0607 14L18.0303 16.9697L18.5607 17.5L17.5 18.5607L16.9697 18.0303L14 15.0607L11.0303 18.0303L10.5 18.5607L9.43934 17.5L9.96967 16.9697L12.9393 14L9.96967 11.0303L9.43934 10.5L10.5 9.43934L11.0303 9.96967L14 12.9393L16.9697 9.96967L17.5 9.43934L18.5607 10.5Z" fill="white"/>
</svg>
