<svg width="21" height="21" viewBox="0 0 21 21" fill="none" xmlns="http://www.w3.org/2000/svg">
<path d="M10.5 0.26001C4.69875 0.26001 0 4.96139 0 10.76C0 15.4001 3.00825 19.335 7.17937 20.7219C7.70437 20.8208 7.89687 20.4961 7.89687 20.217C7.89687 19.9676 7.88813 19.307 7.88375 18.432C4.963 19.0655 4.347 17.0233 4.347 17.0233C3.86925 15.8114 3.17887 15.4876 3.17887 15.4876C2.22775 14.8366 3.25238 14.8498 3.25238 14.8498C4.30675 14.9233 4.86062 15.9313 4.86062 15.9313C5.79688 17.5369 7.3185 17.0731 7.91875 16.8045C8.01325 16.1255 8.28363 15.6626 8.58375 15.4001C6.25188 15.1376 3.801 14.2346 3.801 10.2114C3.801 9.06514 4.20788 8.12889 4.88163 7.39389C4.7635 7.12876 4.40912 6.06126 4.9735 4.61489C4.9735 4.61489 5.85288 4.33314 7.861 5.69114C8.701 5.45751 9.5935 5.34201 10.486 5.33676C11.3785 5.34201 12.271 5.45751 13.111 5.69114C15.106 4.33314 15.9854 4.61489 15.9854 4.61489C16.5497 6.06126 16.1954 7.12876 16.0904 7.39389C16.7598 8.12889 17.1666 9.06514 17.1666 10.2114C17.1666 14.2451 14.7122 15.1333 12.376 15.3914C12.7435 15.7064 13.0848 16.3504 13.0848 17.3339C13.0848 18.7391 13.0716 19.8679 13.0716 20.2091C13.0716 20.4848 13.2554 20.8129 13.7935 20.7079C17.9944 19.3306 21 15.3931 21 10.76C21 4.96139 16.2986 0.26001 10.5 0.26001Z" fill="white"/>
</svg>
